<?xml version="1.0" encoding="utf-8"?>
<!-- Generator: Adobe Illustrator 23.0.1, SVG Export Plug-In . SVG Version: 6.00 Build 0)  -->
<svg version="1.1" id="Layer_1" xmlns="http://www.w3.org/2000/svg" xmlns:xlink="http://www.w3.org/1999/xlink" x="0px" y="0px"
	 viewBox="0 0 1024 1024" style="enable-background:new 0 0 1024 1024;" xml:space="preserve">
<style type="text/css">
	.st0{fill:#7159C1;}
</style>
<title>logo</title>
<desc>Created with Sketch.</desc>
<g id="Web">
	<g id="Dashboard" transform="translate(-250.000000, -20.000000)">
		<g id="Group-13">
			<g id="Group-12" transform="translate(250.000000, 20.000000)">
				<g id="logo">
					<path id="Path" class="st0" d="M475,248c0-50.8-22.8-112.9-128-112.9c-51.2,0-71.1,14.1-96.7,31.1
						c-28.4,19.8-65.4,45.2-139.4,45.2c-48.4,0-82.5-8.5-110.9-19.8c31.3,76.2,108.1,172.2,304.4,172.2
						C406.8,360.9,475,301.6,475,248z"/>
					<path class="st0" d="M702.6,663.1c-99.6,0-159.3-31.1-190.6-56.5c-31.3,25.4-91,56.5-190.6,56.5
						c-156.4,0-210.5-206.1-224.7-268.2c-11.4-5.6-19.9-8.5-31.3-14.1l14.2,129.9C105.2,730.8,378.3,877.6,512,888.9
						c125.2-14.1,398.2-158.1,426.7-378.4l14.2-132.7c-8.5,5.6-19.9,11.3-31.3,16.9C913.1,459.8,859,663.1,702.6,663.1z"/>
					<path class="st0" d="M776.5,166.1c-25.6-16.9-48.4-31.1-96.7-31.1c-105.2,0-128,62.1-128,112.9c0,53.6,68.3,112.9,167.8,112.9
						c196.3,0,273.1-96,304.4-172.2c-28.4,11.3-62.6,19.8-108.1,19.8C842,211.3,805,185.9,776.5,166.1z"/>
				</g>
			</g>
		</g>
	</g>
</g>
</svg>
